<?xml version="1.0" encoding="UTF-8"?>
<!-- Uploaded to: SVGRepo, www.svgrepo.com, Transformed by: SVGRepo Tools -->
<svg width="800px" height="800px" viewBox="0 -5 32 32" fill="white" version="1.1" xmlns="http://www.w3.org/2000/svg" xmlns:xlink="http://www.w3.org/1999/xlink">
    
    <title>envelope</title>
    <desc>Created with Sketch.</desc>
    <g id="icons" stroke="none" stroke-width="1" fill="none" fill-rule="evenodd">
        <g id="ui-gambling-website-lined-icnos-casinoshunter" transform="translate(-2034.000000, -289.000000)" fill="#1C1C1F">
            <g id="1" transform="translate(1350.000000, 120.000000)">
                <path d="M702.968194,181.583684 L714.343639,190.683014 C714.296789,190.706522 714.249239,190.728839 714.201027,190.749925 L685.798973,190.749925 C685.750761,190.728839 685.703211,190.706522 685.656361,190.683014 L697.031494,181.583275 L698.516288,182.771272 C698.569285,182.81367 698.623685,182.853499 698.683086,182.893299 L698.683086,182.893299 L698.729719,182.923582 C698.764727,182.945761 698.800192,182.966944 698.836041,182.987184 C698.858724,182.999951 698.881568,183.012317 698.904729,183.024281 C698.936307,183.040702 698.96818,183.056371 698.999866,183.071179 C699.032594,183.086381 699.065591,183.100797 699.099054,183.114407 C699.120411,183.123161 699.14187,183.131592 699.163355,183.139789 C699.197711,183.152716 699.232303,183.164817 699.267157,183.176001 C699.294774,183.184952 699.322525,183.193386 699.350203,183.201354 C699.370482,183.207113 699.390821,183.212598 699.411307,183.217733 C699.448875,183.227333 699.486638,183.236003 699.524738,183.243856 C699.553308,183.249677 699.581963,183.254968 699.610267,183.259597 C699.64053,183.264625 699.670876,183.269064 699.701694,183.273009 C699.729987,183.27658 699.75833,183.279641 699.786318,183.282134 C699.818657,183.285053 699.851051,183.287311 699.883816,183.288924 C699.913439,183.29037 699.943083,183.291263 699.972453,183.291614 C700.004128,183.291985 700.035816,183.291725 700.067499,183.290802 C700.092512,183.290093 700.117515,183.28899 700.142499,183.287532 C700.180235,183.285275 700.217937,183.282118 700.255521,183.278017 C700.279566,183.275423 700.303579,183.272461 700.327661,183.269165 C700.361398,183.264478 700.395063,183.259062 700.428381,183.252919 C700.456513,183.247773 700.484572,183.242115 700.512455,183.235999 C700.544884,183.228844 700.577202,183.220999 700.609766,183.212346 C700.63088,183.206746 700.651932,183.200851 700.672509,183.194782 C700.715151,183.182199 700.757531,183.168388 700.800157,183.153177 C700.816885,183.147195 700.833561,183.141019 700.849583,183.134834 C700.887196,183.120421 700.924538,183.10501 700.961849,183.08855 C700.984647,183.078449 701.007322,183.067971 701.029526,183.057193 C701.100758,183.022896 701.170726,182.984819 701.239145,182.942949 L701.161,182.987 L701.136,183.002 L701.201306,182.965713 L701.239145,182.942949 L701.268392,182.924821 C701.288262,182.912254 701.307988,182.899364 701.327565,182.886152 L701.327565,182.886152 L701.415,182.823 L701.433,182.809 L701.483651,182.771321 L702.968194,181.583684 Z M684.097959,171.236739 L695.131,180.063 L684.126851,188.865889 C684.044342,188.591732 684,188.301044 684,188 L684,172 C684,171.736246 684.034037,171.480441 684.097959,171.236739 Z M716,172 L716,188 C716,188.301044 715.955658,188.591732 715.873149,188.865889 L704.87,180.063 L715.902041,171.236739 C715.965963,171.480441 716,171.736246 716,172 Z M714.427197,169.375 L700,180.916758 L697.031614,178.541725 L685.572803,169.375 L714.427197,169.375 Z" id="envelope"></path>
            </g>
        </g>
    </g>
</svg>