<?xml version="1.0" encoding="iso-8859-1"?>
<!-- Generator: Adobe Illustrator 19.0.0, SVG Export Plug-In . SVG Version: 6.00 Build 0)  -->
<svg version="1.1" id="Layer_1" xmlns="http://www.w3.org/2000/svg" xmlns:xlink="http://www.w3.org/1999/xlink" x="0px" y="0px"
	 viewBox="0 0 481.882 481.882" style="enable-background:new 0 0 481.882 481.882;" xml:space="preserve">
<g>
	<g>
		<path d="M240.943,0c-91.239,0-165.47,74.228-165.47,165.471c0,88.617,152.831,304.121,159.338,313.25
			c1.393,1.96,3.64,3.132,6.04,3.162c0.029,0,0.063,0,0.092,0c2.368,0,4.6-1.114,6.022-3.011
			c1.596-2.125,159.445-223.283,159.445-313.4C406.41,74.228,332.182,0,240.943,0z M240.943,260.699
			c-52.511,0-95.231-42.721-95.231-95.228c0-52.511,42.72-95.232,95.231-95.232c52.508,0,95.228,42.721,95.228,95.232
			C336.171,217.978,293.45,260.699,240.943,260.699z"/>
	</g>
</g>
<g>
</g>
<g>
</g>
<g>
</g>
<g>
</g>
<g>
</g>
<g>
</g>
<g>
</g>
<g>
</g>
<g>
</g>
<g>
</g>
<g>
</g>
<g>
</g>
<g>
</g>
<g>
</g>
<g>
</g>
</svg>
